# xmcd
#
# Track frame offsets:
#	150
#	12378
#	32148
#	44928
#	56440
#	69035
#	82367
#	96895
#	108192
#	121735
#	130260
#	144497
#	156776
#	172157
#	182851
#	198111
#	207619
#
# Disc length: 2940 seconds
#
# Revision: 0
# Processed by: cddbd v1.5.2PL0 Copyright (c) Steve Scherf et al.
# Submitted via: EasyCDDAExtractor 11.9.9.666
#
DISCID=f70b7a11
DTITLE=Cadena Perpetua - Malas Costumbres
DYEAR=2003
DGENRE=Punk Rock
TTITLE0=Malas Costumbres
TTITLE1=Emigrar
TTITLE2=I Wanna Destroy You
TTITLE3=Sigo Acá
TTITLE4=Secreataría de Turismo
TTITLE5=Desde el Infierno
TTITLE6=Inolvidable
TTITLE7=Imperalista
TTITLE8=De Más
TTITLE9=Yo, el Mal
TTITLE10=Canción Infantil
TTITLE11=Por Qué Parar?
TTITLE12=Diferencias
TTITLE13=Te Acordarás de Mí?
TTITLE14=Los Chicos Lloran
TTITLE15=18hs.
TTITLE16=Panorama
EXTD=
EXTT0=
EXTT1=
EXTT2=
EXTT3=
EXTT4=
EXTT5=
EXTT6=
EXTT7=
EXTT8=
EXTT9=
EXTT10=
EXTT11=
EXTT12=
EXTT13=
EXTT14=
EXTT15=
EXTT16=
PLAYORDER=
